<svg xmlns="http://www.w3.org/2000/svg" viewBox="0 0 512 512" role="img" aria-labelledby="title desc">
  <title id="title">DRAGO AI</title>
  <desc id="desc">A friendly dragon-inspired AI assistant logo for PunchX</desc>
  <defs>
    <linearGradient id="bg" x1="0" y1="0" x2="1" y2="1"><stop offset="0" stop-color="#07122a"/><stop offset="1" stop-color="#16264b"/></linearGradient>
    <linearGradient id="gold" x1="0" y1="0" x2="1" y2="1"><stop offset="0" stop-color="#ffe6a6"/><stop offset="0.5" stop-color="#e9c176"/><stop offset="1" stop-color="#b98532"/></linearGradient>
  </defs>
  <circle cx="256" cy="256" r="238" fill="url(#bg)" stroke="#e9c176" stroke-width="10"/>
  <path d="M151 214c-8-65 34-118 105-118 60 0 106 37 116 93 9 49-14 104-55 133-25 18-37 41-39 70h-66c-1-29-14-52-38-70-25-18-43-53-43-108z" fill="url(#gold)"/>
  <path d="M165 157l-43-38 7 67M347 157l43-38-7 67" fill="#e9c176" stroke="#07122a" stroke-width="13" stroke-linejoin="round"/>
  <ellipse cx="213" cy="218" rx="17" ry="22" fill="#07122a"/><ellipse cx="299" cy="218" rx="17" ry="22" fill="#07122a"/>
  <circle cx="218" cy="211" r="5" fill="#fff"/><circle cx="304" cy="211" r="5" fill="#fff"/>
  <path d="M214 275c25 20 59 20 84 0" fill="none" stroke="#07122a" stroke-width="12" stroke-linecap="round"/>
  <path d="M205 319c18 12 84 12 102 0" fill="none" stroke="#07122a" stroke-width="8" stroke-linecap="round" opacity=".55"/>
  <path d="M171 367h170" stroke="#e9c176" stroke-width="7" stroke-linecap="round" opacity=".8"/>
  <text x="256" y="405" text-anchor="middle" font-family="Inter,Arial,sans-serif" font-size="38" font-weight="900" fill="#fff" letter-spacing="5">DRAGO</text>
  <text x="256" y="435" text-anchor="middle" font-family="Inter,Arial,sans-serif" font-size="15" font-weight="700" fill="#e9c176" letter-spacing="3">PUNCHX AI</text>
</svg>
